<?xml version="1.0" encoding="UTF-8"?>
<svg id="_레이어_1" data-name="레이어_1" xmlns="http://www.w3.org/2000/svg" version="1.1" viewBox="0 0 256 256">
  <!-- Generator: Adobe Illustrator 29.5.0, SVG Export Plug-In . SVG Version: 2.1.0 Build 137)  -->
  <defs>
    <style>
      .st0 {
        fill: #d6b08e;
      }

      .st1 {
        fill: #140a00;
      }

      .st2 {
        fill: #eac9a9;
      }

      .st3 {
        fill: #35281e;
      }

      .st4 {
        fill: #fff;
      }
    </style>
  </defs>
  <path class="st2" d="M139.24,60.48S101.56,17.23,60.09,26.72c-21.17,4.85-42.01,19.7-39.18,48.51s32.11,53.28,32.11,53.28l86.21-68.03Z"/>
  <path class="st2" d="M121.11,60.48s37.68-43.25,79.14-33.76c21.17,4.85,42.01,19.7,39.18,48.51s-32.11,53.28-32.11,53.28L121.11,60.48Z"/>
  <path class="st0" d="M38.7,115.65S77.35,46.25,107.08,41.06c17.86-3.12,26.67-3.42,42.97-.27,29.59,5.72,36.59,33.09,64.49,70.24,47.57,30.62,38.73,123.13-14.35,123.02-28.34.18-31.86-2.09-71.73-2.25-41.07-.17-45.32,4.18-76.91,1.2-40.2-3.79-62.01-91.35-12.85-117.35Z"/>
  <path d="M130.92,164.86h-.03c-25.97-.04-50.41-24.24-51.44-25.27-1.29-1.3-1.29-3.39,0-4.68,1.3-1.29,3.39-1.29,4.68,0,.23.23,23.55,23.3,46.76,23.33h.02c10.7,0,32.16-9.93,43.84-22.76,1.23-1.35,3.33-1.45,4.68-.22,1.35,1.23,1.45,3.33.22,4.68-11.88,13.05-35.1,24.92-48.74,24.92Z"/>
  <path d="M130.89,164.86h-.05c-1.83-.03-3.29-1.53-3.26-3.36l.33-22.09c.03-1.81,1.51-3.26,3.31-3.26h.05c1.83.03,3.29,1.53,3.26,3.36l-.33,22.09c-.03,1.81-1.51,3.26-3.31,3.26Z"/>
  <path class="st1" d="M163.09,83.32c5.47,2.01,11.16,10,9.53,17.73-1.62,7.73-8.41,10.72-11.55,9.57-3.13-1.15-9.73-9.26-8.33-18.51,1.37-9.06,4.87-10.81,10.35-8.79Z"/>
  <ellipse class="st4" cx="166.11" cy="89.79" rx="1.27" ry="2.53" transform="translate(-20.38 119.42) rotate(-37.42)"/>
  <path class="st1" d="M96.73,83.32c-5.47,2.02-11.15,10-9.52,17.74s8.42,10.72,11.55,9.56,9.72-9.27,8.32-18.51-4.88-10.8-10.35-8.79Z"/>
  <ellipse class="st4" cx="93.7" cy="89.8" rx="2.53" ry="1.27" transform="translate(-34.54 109.74) rotate(-52.62)"/>
  <path class="st3" d="M119.89,102.34s14.44-.88,22.71.46c7.69,1.25,11.41,11.31,11.68,17.38.58,12.87-4.92,18.29-12.03,20.92-5.28,1.96-21.95,6.73-33.04-4.88-11.09-11.6-2.32-33.82,10.68-33.89Z"/>
  <ellipse class="st4" cx="121.11" cy="110.24" rx="6.16" ry="3.37" transform="translate(-18.32 24.34) rotate(-10.67)"/>
</svg>